<svg xmlns="http://www.w3.org/2000/svg" width="700mm" height="700mm" viewBox="0 0 700 700"><defs><clipPath clipPathUnits="userSpaceOnUse" id="a"><path d="M204.167 100H362.5v241.667H204.167z" clip-rule="evenodd"/></clipPath></defs><g clip-path="url(#a)" transform="translate(-131.162 -25.023) scale(1.69822)"><path d="M283.333 220.833a40.865 40.865 0 013.013-15.413 40.421 40.421 0 013.657-6.964 40.043 40.043 0 014.922-6.103 39.636 39.636 0 015.998-5.01 39.26 39.26 0 0114.267-6.014 38.82 38.82 0 017.721-.773 38.974 38.974 0 0115.146 3.066 39.26 39.26 0 016.843 3.722 39.637 39.637 0 015.997 5.009 40.043 40.043 0 014.922 6.103 40.71 40.71 0 015.91 14.52 40.87 40.87 0 01.76 7.857 40.87 40.87 0 01-3.012 15.414 40.421 40.421 0 01-3.658 6.963 40.044 40.044 0 01-4.922 6.104 39.636 39.636 0 01-5.997 5.009 39.26 39.26 0 01-14.267 6.014 38.821 38.821 0 01-7.722.774 38.975 38.975 0 01-15.146-3.066 39.262 39.262 0 01-6.842-3.722 39.635 39.635 0 01-5.998-5.009 40.044 40.044 0 01-4.922-6.104 40.71 40.71 0 01-5.91-14.52 40.866 40.866 0 01-.76-7.857z" fill="#1abcfe"/><path d="M204.177 301.389a40.868 40.868 0 013.013-15.414 40.421 40.421 0 013.657-6.963 40.042 40.042 0 014.923-6.104 39.636 39.636 0 015.997-5.009 39.26 39.26 0 0114.267-6.014 38.82 38.82 0 017.721-.774h39.578v40.278a40.869 40.869 0 01-3.012 15.413 40.422 40.422 0 01-3.658 6.964 40.046 40.046 0 01-4.922 6.104 39.638 39.638 0 01-5.997 5.009 39.263 39.263 0 01-14.267 6.014 38.821 38.821 0 01-7.722.774 38.975 38.975 0 01-15.146-3.066 39.263 39.263 0 01-6.842-3.722 39.638 39.638 0 01-5.997-5.01 40.045 40.045 0 01-4.923-6.103 40.711 40.711 0 01-5.91-14.52 40.868 40.868 0 01-.76-7.857z" fill="#0acf83"/><path d="M283.333 100v80.556h39.578a38.975 38.975 0 0015.146-3.066 39.262 39.262 0 006.843-3.722 39.638 39.638 0 005.997-5.01 40.043 40.043 0 004.922-6.103 40.711 40.711 0 005.91-14.52 40.87 40.87 0 00.76-7.857 40.87 40.87 0 00-3.012-15.414 40.421 40.421 0 00-3.658-6.963 40.043 40.043 0 00-4.922-6.104 39.637 39.637 0 00-5.997-5.009 39.26 39.26 0 00-14.267-6.014 38.82 38.82 0 00-7.722-.774z" fill="#ff7262"/><path d="M204.177 140.278a40.868 40.868 0 003.013 15.413 40.42 40.42 0 003.657 6.964 40.044 40.044 0 004.923 6.103 39.637 39.637 0 005.997 5.01 39.262 39.262 0 0014.267 6.014 38.82 38.82 0 007.721.774h39.578V100h-39.578a38.975 38.975 0 00-15.146 3.066 39.261 39.261 0 00-6.842 3.722 39.636 39.636 0 00-5.997 5.01 40.043 40.043 0 00-4.923 6.103 40.71 40.71 0 00-5.91 14.52 40.868 40.868 0 00-.76 7.857z" fill="#f24e1e"/><path d="M204.177 220.833a40.868 40.868 0 003.013 15.414 40.421 40.421 0 003.657 6.963 40.045 40.045 0 004.923 6.104 39.635 39.635 0 005.997 5.009 39.261 39.261 0 0014.267 6.014 38.82 38.82 0 007.721.774h39.578v-80.555h-39.578a38.974 38.974 0 00-15.146 3.066 39.26 39.26 0 00-6.842 3.722 39.636 39.636 0 00-5.997 5.009 40.043 40.043 0 00-4.923 6.103 40.71 40.71 0 00-5.91 14.52 40.868 40.868 0 00-.76 7.857z" fill="#a259ff"/></g></svg>